<svg xmlns="http://www.w3.org/2000/svg" width="486.574" height="910.723" viewBox="0 0 486.574 910.723"><defs><style>.a{opacity:0.12;}.b{fill:#fff;}.c,.d,.e,.f,.g,.i{fill:none;stroke-miterlimit:10;}.c,.d{stroke:#fcc66d;}.d,.g,.i{stroke-width:0.75px;}.e,.i{stroke:#2274a5;}.f,.g{stroke:#32936f;}.h{opacity:0.26;}.j{opacity:0.147;}</style></defs><g class="a" transform="translate(603.024 910.723) rotate(180)"><g transform="translate(116.451)"><g transform="translate(0 145.084)"><path class="b" d="M134.451,36.415,86.074,64.366v55.856l48.377,27.951,48.377-27.951V64.366L134.451,36.415m0-5.375L187.5,61.655v61.277l-53.051,30.615L81.4,122.933V61.655L134.451,31.04Z" transform="translate(-81.4 -31.04)"/></g><g transform="translate(11.638 316.343)"><path class="b" d="M125.3,73.055,88.564,94.276v42.441l36.738,21.22,36.738-21.22V94.276L125.3,73.055m0-5.375,41.413,23.931v47.816L125.3,163.359,83.89,139.427V91.565L125.3,67.68Z" transform="translate(-83.89 -67.68)"/></g><g transform="translate(223.983 170.605)"><path class="b" d="M79.873,41.922,43.134,63.142v42.441L79.873,126.8l36.738-21.22V63.142L79.873,41.922m0-5.422,41.413,23.931v47.816L79.873,132.179,38.46,108.247V60.431L79.873,36.5Z" transform="translate(-38.46 -36.5)"/></g><g transform="translate(11.311)"><path class="b" d="M125.56,5.375,88.494,26.783V69.551L125.56,90.958l37.066-21.407V26.783L125.56,5.375m0-5.375L167.3,24.072v48.19L125.56,96.333,83.82,72.262V24.072L125.56,0Z" transform="translate(-83.82)"/></g><g transform="translate(140.083 239.314)"><path class="b" d="M91.217,56.622l-24.492,13.7-.374,28.091,24.118,14.349,24.492-13.7.374-28.091L91.217,56.622m.094-5.422,28.746,17.107-.467,33.467L90.376,118.133,61.63,101.026,62.1,67.559,91.311,51.2Z" transform="translate(-61.63 -51.2)"/></g><g transform="translate(122.134 82.498)"><path class="b" d="M88.713,21.716l-14.864,8.32L73.616,47.05l14.63,8.694,14.864-8.32.234-17.014-14.63-8.694m.047-4.066,18.089,10.8-.28,21.08L88.2,59.81,70.11,49.013l.28-21.08L88.76,17.65Z" transform="translate(-70.11 -17.65)"/></g><line class="c" y1="55.154" transform="translate(53.051 93.529)"/><line class="c" x2="39.636" y2="22.015" transform="translate(103.999 235.294)"/><line class="c" y2="55.996" transform="translate(53.051 263.9)"/><line class="c" y1="17.621" x2="31.784" transform="translate(195.003 241.137)"/><line class="d" x2="32.906" y2="22.623" transform="translate(92.126 70.906)"/></g><g transform="translate(0 393.236)"><g transform="translate(224.03 170.605)"><path class="b" d="M112.693,90.752l-36.738,21.22v42.441l36.738,21.22,36.738-21.22V111.972l-36.738-21.22m0-5.422,41.413,23.931v47.816l-41.413,23.931L71.28,157.078V109.261L112.693,85.33Z" transform="translate(-71.28 -85.33)"/></g><g transform="translate(140.13 239.314)"><path class="b" d="M124.037,105.452l-24.492,13.7-.374,28.091,24.118,14.349,24.492-13.7.374-28.091-24.118-14.349m.094-5.422,28.746,17.107-.467,33.467L123.2,166.963,94.45,149.856l.467-33.467,29.213-16.359Z" transform="translate(-94.45 -100.03)"/></g><g transform="translate(122.134 82.498)"><path class="b" d="M121.543,70.546l-14.864,8.32-.234,17.014,14.63,8.694,14.864-8.32.234-17.014-14.63-8.694m.047-4.066,18.089,10.8-.28,21.08L121.029,108.64l-18.089-10.8.28-21.08L121.59,66.48Z" transform="translate(-102.94 -66.48)"/></g><line class="e" y1="17.621" x2="31.784" transform="translate(195.05 241.137)"/></g><g transform="translate(296.17 313.118)"><g transform="translate(0 145.084)"><path class="b" d="M96,103.405,47.624,131.356v55.856L96,215.163l48.377-27.951V131.356L96,103.405m0-5.375,53.051,30.615v61.277L96,220.538,42.95,189.923V128.645L96,98.03Z" transform="translate(-42.95 -98.03)"/></g><g transform="translate(11.638 316.343)"><path class="b" d="M86.853,140.045l-36.738,21.22v42.441l36.738,21.22,36.738-21.22V161.266l-36.738-21.22m0-5.375L128.265,158.6v47.816L86.853,230.349,45.44,206.417V158.6L86.853,134.67Z" transform="translate(-45.44 -134.67)"/></g><g transform="translate(224.03 170.605)"><path class="b" d="M41.413,108.912,4.674,130.132v42.441l36.738,21.22,36.738-21.267V130.086L41.413,108.912m0-5.422,41.413,23.931v47.816L41.413,199.169,0,175.238V127.421L41.413,103.49Z" transform="translate(0 -103.49)"/></g><g transform="translate(11.311)"><path class="b" d="M87.11,72.365,50.044,93.773v42.768L87.11,157.948l37.066-21.407V93.773L87.11,72.365m0-5.375,41.74,24.072v48.19L87.11,163.323,45.37,139.252V91.062L87.11,66.99Z" transform="translate(-45.37 -66.99)"/></g><g transform="translate(140.129 239.314)"><path class="b" d="M52.757,123.612l-24.492,13.7L27.891,165.4l24.118,14.349,24.492-13.7.374-28.091L52.757,123.612m.093-5.422L81.6,135.3l-.467,33.467L51.916,185.123,23.17,168.016l.467-33.467L52.851,118.19Z" transform="translate(-23.17 -118.19)"/></g><g transform="translate(122.134 82.498)"><path class="b" d="M50.263,88.706,35.4,97.026l-.234,17.014,14.63,8.694,14.864-8.32L64.893,97.4l-14.63-8.694m.047-4.066L68.4,95.437l-.28,21.08L49.749,126.8,31.66,116l.28-21.08L50.31,84.64Z" transform="translate(-31.66 -84.64)"/></g><line class="f" y1="55.154" transform="translate(53.051 93.529)"/><line class="f" x2="39.636" y2="22.015" transform="translate(104.045 235.294)"/><line class="f" y2="55.996" transform="translate(53.051 263.9)"/><line class="f" y1="17.621" x2="31.784" transform="translate(195.05 241.137)"/><line class="g" x2="32.906" y2="22.623" transform="translate(92.173 70.906)"/></g><g class="h" transform="translate(234.892 180.747)"><g transform="translate(0 145.037)"><path class="b" d="M109.111,75.122,60.734,103.073v55.856l48.377,27.951,48.377-27.951V103.073L109.111,75.122m0-5.422,53.051,30.615v61.277l-53.051,30.615L56.06,161.593V100.362L109.111,69.7Z" transform="translate(-56.06 -69.7)"/></g><g transform="translate(11.638 316.296)"><path class="b" d="M99.963,111.762l-36.738,21.22v42.441l36.738,21.22,36.738-21.22V132.982l-36.738-21.22m0-5.422,41.413,23.931v47.816L99.963,202.019,58.55,178.087V130.271L99.963,106.34Z" transform="translate(-58.55 -106.34)"/></g><g transform="translate(224.03 170.605)"><path class="b" d="M54.523,80.592l-36.738,21.22v42.441l36.738,21.22,36.738-21.22V101.812L54.523,80.592m0-5.422L95.935,99.1v47.816L54.523,170.849,13.11,146.917V99.1L54.523,75.17Z" transform="translate(-13.11 -75.17)"/></g><g transform="translate(11.311)"><path class="b" d="M100.22,44.045,63.154,65.453v42.768l37.066,21.407,37.066-21.407V65.453L100.22,44.045m0-5.375,41.74,24.072v48.19L100.22,135,58.48,110.932V62.742L100.22,38.67Z" transform="translate(-58.48 -38.67)"/></g><g transform="translate(140.129 239.314)"><path class="b" d="M65.867,95.292l-24.492,13.7L41,137.078l24.118,14.349,24.492-13.7.374-28.091L65.867,95.292m.093-5.422,28.746,17.107-.467,33.467L65.026,156.8,36.28,139.7l.467-33.467L65.961,89.87Z" transform="translate(-36.28 -89.87)"/></g><g transform="translate(122.134 82.498)"><path class="b" d="M63.373,60.386l-14.864,8.32L48.276,85.72l14.63,8.694,14.864-8.32L78,69.08l-14.63-8.694m.047-4.066,18.089,10.8-.28,21.08L62.859,98.48,44.77,87.683l.28-21.08L63.42,56.32Z" transform="translate(-44.77 -56.32)"/></g><line class="e" y1="55.201" transform="translate(53.051 93.482)"/><line class="e" x2="39.636" y2="22.015" transform="translate(104.045 235.294)"/><line class="e" y2="55.996" transform="translate(53.051 263.9)"/><line class="e" y1="17.621" x2="31.784" transform="translate(195.05 241.137)"/><line class="i" x2="32.952" y2="22.576" transform="translate(92.126 70.906)"/></g><g class="j" transform="translate(175.892 498.748)"><g transform="translate(0 145.037)"><path class="b" d="M109.111,75.122,60.734,103.073v55.856l48.377,27.951,48.377-27.951V103.073L109.111,75.122m0-5.422,53.051,30.615v61.277l-53.051,30.615L56.06,161.593V100.362L109.111,69.7Z" transform="translate(-56.06 -69.7)"/></g><g transform="translate(11.638 316.296)"><path class="b" d="M99.963,111.762l-36.738,21.22v42.441l36.738,21.22,36.738-21.22V132.982l-36.738-21.22m0-5.422,41.413,23.931v47.816L99.963,202.019,58.55,178.087V130.271L99.963,106.34Z" transform="translate(-58.55 -106.34)"/></g><g transform="translate(224.03 170.605)"><path class="b" d="M54.523,80.592l-36.738,21.22v42.441l36.738,21.22,36.738-21.22V101.812L54.523,80.592m0-5.422L95.935,99.1v47.816L54.523,170.849,13.11,146.917V99.1L54.523,75.17Z" transform="translate(-13.11 -75.17)"/></g><g transform="translate(11.311)"><path class="b" d="M100.22,44.045,63.154,65.453v42.768l37.066,21.407,37.066-21.407V65.453L100.22,44.045m0-5.375,41.74,24.072v48.19L100.22,135,58.48,110.932V62.742L100.22,38.67Z" transform="translate(-58.48 -38.67)"/></g><g transform="translate(140.129 239.314)"><path class="b" d="M65.867,95.292l-24.492,13.7L41,137.078l24.118,14.349,24.492-13.7.374-28.091L65.867,95.292m.093-5.422,28.746,17.107-.467,33.467L65.026,156.8,36.28,139.7l.467-33.467L65.961,89.87Z" transform="translate(-36.28 -89.87)"/></g><g transform="translate(122.134 82.498)"><path class="b" d="M63.373,60.386l-14.864,8.32L48.276,85.72l14.63,8.694,14.864-8.32L78,69.08l-14.63-8.694m.047-4.066,18.089,10.8-.28,21.08L62.859,98.48,44.77,87.683l.28-21.08L63.42,56.32Z" transform="translate(-44.77 -56.32)"/></g><line class="e" y1="55.201" transform="translate(53.051 93.482)"/><line class="e" x2="39.636" y2="22.015" transform="translate(104.045 235.294)"/><line class="e" y2="55.996" transform="translate(53.051 263.9)"/><line class="e" y1="17.621" x2="31.784" transform="translate(195.05 241.137)"/><line class="i" x2="32.952" y2="22.576" transform="translate(92.126 70.906)"/></g></g></svg>